<svg xmlns="http://www.w3.org/2000/svg" viewBox="0 0 100 100">
  <rect width="100" height="100" rx="20" fill="#0C2031"/>
  <path d="M50 20a30 30 0 0 1 30 30" fill="none" stroke="#3E9A8F" stroke-width="4" stroke-linecap="round"/>
  <path d="M22 50a28 28 0 0 0 7 18" fill="none" stroke="#C7D6E3" stroke-width="4" stroke-linecap="round"/>
  <path d="M26 62c5 8 14 13 24 13 14 0 25-9 25-20 0-2-2-4-4-4H30c-3 0-5 1-6 3-1 3 0 6 2 8z" fill="#C7D6E3"/>
  <circle cx="40" cy="46" r="5.5" fill="#4E7494"/>
  <circle cx="60" cy="46" r="5.5" fill="#4E7494"/>
  <circle cx="50" cy="40" r="7" fill="#FBFAF5"/>
</svg>
